<svg width="634" height="512" viewBox="0 0 634 512" fill="none" xmlns="http://www.w3.org/2000/svg">
<path d="M68.8064 139.873C70.3727 119.726 76.0702 100.117 85.544 82.2677C110.938 34.5991 169.408 -9.03707 225.877 1.61995C277.466 11.3489 316.75 51.4007 370.339 58.0893C459.948 69.2904 488.75 3.68414 571.958 40.4877C605.866 55.4811 629.452 83.8998 633.308 121.215C637.901 165.78 612.266 197.031 602.377 238.107C590.968 285.471 616.411 328.627 623.915 374.12C628.236 400.378 625.02 427.997 610.554 450.767C590.872 481.778 552.725 494.867 520.754 509.252H75.911C75.911 509.252 48.7085 504.452 15.1052 437.246C-18.498 370.039 8.70462 320.434 50.3086 270.83C71.7666 245.227 73.3188 216.104 69.7985 184.325C68.0186 169.576 67.6863 154.687 68.8064 139.873Z" fill="#FE5959"/>
<path opacity="0.7" d="M68.8064 139.873C70.3727 119.726 76.0702 100.117 85.544 82.2677C110.938 34.5991 169.408 -9.03707 225.877 1.61995C277.466 11.3489 316.75 51.4007 370.339 58.0893C459.948 69.2904 488.75 3.68414 571.958 40.4877C605.866 55.4811 629.452 83.8998 633.308 121.215C637.901 165.78 612.266 197.031 602.377 238.107C590.968 285.471 616.411 328.627 623.915 374.12C628.236 400.378 625.02 427.997 610.554 450.767C590.872 481.778 552.725 494.867 520.754 509.252H75.911C75.911 509.252 48.7085 504.452 15.1052 437.246C-18.498 370.039 8.70462 320.434 50.3086 270.83C71.7666 245.227 73.3188 216.104 69.7985 184.325C68.0186 169.576 67.6863 154.687 68.8064 139.873Z" fill="white"/>
<path d="M530.937 299.445C531.005 343.69 516.994 386.809 490.931 422.563C469.867 451.561 441.715 474.669 409.167 489.676C376.619 504.684 340.765 511.088 305.035 508.278C269.304 505.467 234.893 493.535 205.092 473.623C175.291 453.711 151.098 426.485 134.828 394.55C118.557 362.615 110.753 327.04 112.162 291.227C113.571 255.413 124.146 220.561 142.876 190.003C161.605 159.445 187.862 134.204 219.135 116.695C250.409 99.1865 285.651 89.995 321.492 90.0003C327.233 90.0003 332.919 90.2299 338.551 90.6892C370.998 93.2895 402.384 103.458 430.192 120.378C458.195 137.43 481.826 160.791 499.198 188.596C519.988 221.828 530.988 260.247 530.937 299.445Z" fill="#FE5959"/>
<g opacity="0.8">
<path opacity="0.2" d="M366.714 398.287C364.073 405.34 368.486 405.636 368.765 408.555C369.043 411.475 368.765 417.068 360.268 425.581C351.771 434.094 337.682 432.323 334.745 435.849C331.809 439.376 326.823 454.318 319.852 459.239C312.881 464.16 311.651 461.29 301.661 463.356C291.672 465.423 284.061 478.315 281.125 484.466C278.189 490.617 281.716 500.869 274.679 501.197C267.642 501.525 264.411 486.222 257.965 478.02C251.519 469.819 249.321 462.52 247.336 452.859C245.351 443.197 248.501 422.94 247.336 415.018C246.171 407.095 225.045 393.022 217.418 383.328C209.79 373.634 199.227 354.295 199.818 347.833C200.711 341.575 203.833 335.849 208.609 331.709C212.136 329.068 210.66 327.608 211.25 325.246C211.841 322.884 214.777 322.327 215.351 319.391C215.925 316.455 213.596 307.646 210.66 306.187C207.724 304.727 205.739 309.713 203.918 308.827C202.098 307.942 196.882 301.791 194.831 301.2C192.781 300.61 193.355 305.022 190.419 299.445C187.483 293.868 186.023 279.762 183.678 277.433C181.332 275.104 179.577 281.55 174 277.433C168.423 273.316 166.078 265.41 163.732 264.311C161.386 263.212 158.155 264.606 155.744 259.898C153.333 255.191 157.86 246.776 155.744 247.58C153.628 248.384 149.068 255.207 147.887 248.761C146.706 242.315 153.759 220.598 152.578 208.87C151.648 196.496 155.659 184.258 163.732 174.835C163.732 174.835 164.897 168.388 166.078 164.271C167.259 160.154 192.486 143.752 195.405 139.06C196.627 136.436 197.334 133.602 197.489 130.712C233.395 104.208 276.864 89.9372 321.492 90.0003C327.233 90.0003 332.919 90.2299 338.551 90.6892L339.141 91.4601C341.684 94.7406 344.423 96.7417 351.853 99.481C359.284 102.22 361.039 105.747 359.481 108.666C357.922 111.586 355.38 112.193 352.444 112.39C349.508 112.587 346.769 111.012 343.652 112.98C340.536 114.949 337.386 125.495 333.286 126.102C329.185 126.709 321.935 116.704 320.377 113.784C318.819 110.864 323.887 104.582 321.492 101.646C319.097 98.7101 314.931 99.3005 308.239 98.71C301.547 98.1196 286.145 100.678 286.735 103.221C287.326 105.763 309.42 102.827 310.01 107.912C310.601 112.997 293.772 121.592 290.852 120.821C287.933 120.05 283.996 114.949 279.698 114.358C275.401 113.768 271.874 117.294 269.168 117.639C266.461 117.983 263.279 114.703 259.162 115.49C255.045 116.277 254.078 119.787 251.929 121.165C249.78 122.543 244.695 122.527 244.105 125.66C243.514 128.792 250.551 130.58 252.306 132.499C254.061 134.419 250.141 141.111 251.912 142.472C253.684 143.834 264.624 134.271 267.364 131.909C270.103 129.547 272.448 119.394 278.304 119.591C284.16 119.787 286.128 129.76 288.146 130.744C290.163 131.728 294.395 128.399 300.858 129.76C307.32 131.122 311.798 145.211 312.979 149.443C314.16 153.675 316.883 158.055 314.62 159.81C312.356 161.565 301.711 158.645 300.349 155.906C298.988 153.167 307.386 149.05 306.795 148.082C306.205 147.114 301.317 145.736 298.775 147.262C296.232 148.787 295.068 151.986 292.328 152.773C289.589 153.56 282.356 145.343 280.404 147.688C278.452 150.034 282.356 157.53 284.308 159.17C286.259 160.81 293.493 161.893 294.149 163.861C294.805 165.829 289.228 170.111 282.667 169.717C276.106 169.323 270.546 164.238 267.987 166.436C265.428 168.634 266.822 174.244 265.067 176.278C263.312 178.312 253.717 176.868 249.026 181.937C244.334 187.005 242.186 194.649 237.544 198.963C232.902 203.277 230.704 197.782 224.422 203.884C218.139 209.985 217.188 223.435 216.991 228.127C216.794 232.818 216.991 236.541 215.433 235.951C213.875 235.36 211.71 231.259 211.119 228.717C210.529 226.175 212.497 221.861 212.497 220.303C212.497 218.744 203.492 210.723 198.21 209.936C192.929 209.149 188.237 213.463 184.334 216.596C180.43 219.728 173.377 219.138 170.834 221.68C168.292 224.223 166.34 246.711 168.292 251.992C170.244 257.274 172.786 257.274 179.052 254.535C185.318 251.796 181.791 246.514 185.515 247.678C187.181 248.307 188.616 249.428 189.627 250.894C190.638 252.36 191.178 254.099 191.174 255.88C191.174 259.013 183.743 266.443 184.727 268.592C185.711 270.741 192.158 268.198 195.274 269.182C198.391 270.166 199.982 272.118 198.998 280.123C198.013 288.127 198.604 294.41 203.295 297.05C207.986 299.691 210.627 293.229 212.694 294.114C214.76 295 217.615 299.691 220.6 299.396C223.585 299.101 222.076 296.46 227.653 294.705C233.23 292.95 231.163 291.769 232.344 288.242C233.525 284.716 237.035 281.796 240.841 283.551C244.646 285.306 242.022 287.947 242.317 290.883C242.612 293.819 249.354 294.163 254.635 295.804C259.917 297.444 262.836 295.804 273.4 299.33C283.963 302.857 284.554 313.404 288.949 315.159C293.345 316.914 308.026 313.994 318.589 321.621C329.152 329.249 326.2 343.322 331.481 347.439C336.763 351.556 356.413 357.117 364.041 358.576C371.668 360.036 372.849 354.771 379 356.231C385.151 357.691 388.694 359.511 390.744 367.959C392.286 375.586 369.355 391.25 366.714 398.287Z" fill="black"/>
<path opacity="0.2" d="M209.102 248.302C209.298 249.942 214.186 250.647 220.059 253.977C225.931 257.307 228.063 267.099 231.196 266.886C234.329 266.673 233.345 262.195 234.476 261.014C235.608 259.833 237.609 257.29 234.476 254.748C231.344 252.206 228.293 246.744 222.585 245.956C216.876 245.169 215.892 242.823 213.35 243.02C212.704 243.034 212.07 243.19 211.49 243.475C210.911 243.76 210.401 244.169 209.996 244.672C209.592 245.175 209.302 245.761 209.147 246.388C208.993 247.015 208.977 247.668 209.102 248.302Z" fill="black"/>
<path opacity="0.2" d="M241.366 264.737C240.496 267.132 241.366 268.838 247.631 270.396C253.897 271.954 259.753 268.838 257.801 267.558C255.849 266.279 252.88 266.886 254.078 264.737C255.275 262.588 254.848 259.456 249.764 260.03C244.679 260.604 242.153 262.572 241.366 264.737Z" fill="black"/>
<path opacity="0.2" d="M263.263 265.393C261.131 265.705 259.982 269.428 262.098 271.774C264.214 274.119 264.247 273.726 266.79 271.774C269.332 269.822 273.236 268.838 272.268 266.853C271.3 264.868 265.428 265.082 263.263 265.393Z" fill="black"/>
<path opacity="0.2" d="M280.289 273.381C281.24 270.462 286.145 273.381 288.293 276.465C290.442 279.549 289.474 284.092 288.293 287.422C287.112 290.752 286.341 294.656 283.602 293.081C280.863 291.506 283.799 286.831 283.405 284.092C283.012 281.353 279.502 275.793 280.289 273.381Z" fill="black"/>
<path opacity="0.2" d="M364.565 110.241C363.549 112.701 368.289 113.522 371.028 115.162C373.767 116.802 375.949 117.704 377.474 115.162C379 112.619 376.884 109.683 374.735 109.093C372.586 108.502 365.55 107.896 364.565 110.241Z" fill="black"/>
<path opacity="0.2" d="M401.521 133.123C403.341 135.025 406.441 134.681 408.574 137.42C410.706 140.159 409.935 144.851 412.674 146.228C415.413 147.606 417.365 146.228 417.595 144.26C417.825 142.292 413.691 137.42 414.068 136.452C414.446 135.485 419.744 137.814 420.925 140.75C422.106 143.686 419.744 147.787 422.483 148.574C425.222 149.361 424.632 145.835 425.764 145.047C426.895 144.26 429.471 144.654 429.274 142.308C429.077 139.963 425.993 134.878 423.418 133.123C420.843 131.368 418.924 129.399 414.61 128.432C410.296 127.464 406.212 128.235 404.046 130.072C401.881 131.909 400.422 131.942 401.521 133.123Z" fill="black"/>
<path opacity="0.2" d="M486.142 169.979C486.013 170.77 485.62 171.493 485.026 172.03C480.925 174.966 476.038 164.796 470.362 162.844C464.687 160.892 462.161 153.659 460.98 155.217C459.799 156.775 460.193 158.94 458.437 161.466C456.682 163.992 454.14 163.435 452.959 168.323C451.778 173.211 458.438 182.199 456.879 185.135C455.321 188.071 453.353 187.087 450.22 186.907C447.087 186.726 447.677 189.433 443.577 188.268C439.476 187.104 442.986 182.002 436.54 175.95C430.094 169.897 427.929 168.716 429.307 165.977C430.684 163.238 428.716 159.334 431.652 158.94C434.588 158.547 436.917 162.844 438.886 164.025C440.854 165.206 443.38 161.68 443.577 158.547C443.774 155.414 436.72 151.116 434.178 148.705C431.636 146.294 431.439 137.437 432.423 135.682C433.407 133.926 436.343 134.501 437.114 130.203C437.573 127.677 433.571 123.445 430.192 120.361C451.652 133.432 470.6 150.236 486.142 169.979Z" fill="black"/>
<path opacity="0.2" d="M515.338 345.307C515.929 339.041 512.796 338.647 515.929 327.116C519.062 315.585 512.648 303.25 510.253 300.708C507.859 298.166 502.823 298.953 498.772 301.495C494.72 304.038 497.591 305.99 494.851 306.974C492.112 307.958 489.389 306.383 486.847 306.58C484.305 306.777 481.926 313.223 476.48 313.026C471.035 312.83 467.475 305.022 463.358 299.445C459.241 293.868 450.843 290.342 448.104 283.502C445.365 276.662 450.646 266.099 449.465 258.078C448.284 250.057 443.019 251.828 442.035 247.334C441.051 242.84 442.822 244.988 444.184 240.675C445.545 236.361 442.625 234.032 445.365 226.601C448.104 219.171 452.992 215.447 451.811 212.134C450.63 208.821 446.89 203.326 446.726 199.422C446.562 195.518 450.45 195.699 457.88 190.22C465.31 184.742 467.262 185.135 472.937 187.087C477.01 188.591 481.194 189.77 485.453 190.614C488.733 191.204 493.277 199.799 494.638 199.406C496 199.012 496.278 196.486 496.803 192.845C497.177 191.23 498.022 189.763 499.231 188.629C521.315 224.02 532.333 265.199 530.871 306.89C529.41 348.581 515.537 388.887 491.03 422.645C510.877 392.12 514.748 351.556 515.338 345.307Z" fill="black"/>
</g>
<path opacity="0.3" d="M530.937 299.445C531.016 343.692 517.003 386.814 490.931 422.563C471.288 449.553 445.503 471.48 415.709 486.533C441.66 471.694 464.172 451.524 481.762 427.353C506.42 393.406 520.384 352.872 521.865 310.942C523.347 269.012 512.279 227.593 490.078 191.992C472.59 164.042 448.822 140.56 420.662 123.412C392.711 106.358 361.149 96.0994 328.513 93.4612C322.854 93.0019 317.113 92.7723 311.355 92.7723C294.316 92.7824 277.342 94.8589 260.803 98.956C280.482 93.0017 300.932 89.9839 321.492 90.0002C327.233 90.0002 332.925 90.2299 338.567 90.6891C371.011 93.2799 402.394 103.449 430.192 120.378C451.651 133.443 470.599 150.241 486.142 169.979C515.184 206.882 530.963 252.485 530.937 299.445Z" fill="white"/>
<path d="M124 508.265L177.29 464.515C177.602 464.294 177.955 464.14 178.329 464.061C178.702 463.982 179.088 463.98 179.462 464.055C179.836 464.129 180.191 464.28 180.506 464.496C180.82 464.713 181.087 464.991 181.29 465.315C182.88 467.695 179.7 484.405 179.7 484.405L188.45 485.205L190.04 490.765L195.61 496.335L196.4 508.265H124Z" fill="#2E353A" stroke="#2E353A" stroke-miterlimit="10"/>
<path d="M84.95 506.699L119.16 482.039C119.16 482.039 124.73 481.249 123.93 486.809C123.13 492.369 115.18 498.749 115.18 498.749L115.98 505.109L117.22 508.549H77L84.95 506.699Z" fill="#2E353A" stroke="#2E353A" stroke-miterlimit="10"/>
<path d="M459 510.265L512.29 466.515C512.602 466.294 512.955 466.14 513.329 466.061C513.702 465.982 514.088 465.98 514.462 466.055C514.836 466.129 515.191 466.28 515.506 466.496C515.82 466.713 516.087 466.991 516.29 467.315C517.88 469.695 514.7 486.405 514.7 486.405L523.45 487.205L525.04 492.765L530.61 498.335L531.4 510.265H459Z" fill="#2E353A" stroke="#2E353A" stroke-miterlimit="10"/>
<path d="M419.95 508.699L454.16 484.039C454.16 484.039 459.73 483.249 458.93 488.809C458.13 494.369 450.18 500.749 450.18 500.749L450.98 507.109L452.22 510.549H412L419.95 508.699Z" fill="#2E353A" stroke="#2E353A" stroke-miterlimit="10"/>
<path d="M366.596 248.822L292.404 244.31C287.624 244.019 283.514 247.658 283.223 252.438L278.246 334.277C277.956 339.056 281.595 343.166 286.374 343.457L360.567 347.969C365.347 348.259 369.457 344.621 369.747 339.841L374.724 258.002C375.015 253.223 371.376 249.113 366.596 248.822Z" fill="#FE5959" stroke="#2E353A" stroke-miterlimit="10"/>
<path d="M274.98 287.472C274.98 287.472 269.31 294.472 252.65 299.472C235.99 304.472 231.98 307.142 231.98 307.142C231.98 307.142 222.31 310.472 218.98 318.802C215.65 327.132 217.65 331.472 236.98 330.142C256.31 328.812 296.31 313.142 296.31 313.142C296.31 313.142 303.65 299.802 301.98 288.472C300.31 277.142 278.31 282.802 274.98 287.472Z" fill="white"/>
<g style="mix-blend-mode:multiply" opacity="0.49">
<path d="M230.39 322.702C230.39 322.702 230.78 326.512 231.13 330.372C232.88 330.372 234.81 330.292 236.98 330.142C256.31 328.802 296.31 313.142 296.31 313.142C299.154 307.712 301.071 301.845 301.98 295.782L299.73 289.362C299.73 289.362 288.39 302.032 277.73 309.362C267.07 316.692 230.39 322.702 230.39 322.702Z" fill="#FE5959"/>
</g>
<path d="M274.98 287.472C274.98 287.472 269.31 294.472 252.65 299.472C235.99 304.472 231.98 307.142 231.98 307.142C231.98 307.142 222.31 310.472 218.98 318.802C215.65 327.132 217.65 331.472 236.98 330.142C256.31 328.812 296.31 313.142 296.31 313.142C296.31 313.142 303.65 299.802 301.98 288.472C300.31 277.142 278.31 282.802 274.98 287.472Z" stroke="#2E353A" stroke-miterlimit="10"/>
<path d="M232.67 324.782C232.67 324.782 272.48 318.602 292.19 307.392" stroke="#2E353A" stroke-width="0.5" stroke-miterlimit="10"/>
<path d="M266.17 323.592C267.35 319.732 268.61 312.942 265.98 306.142C264.598 302.46 261.955 299.388 258.52 297.472C256.73 298.162 254.78 298.832 252.65 299.472L251.1 299.942C254.6 302.092 260.19 306.722 260.65 314.472C260.936 318.073 260.873 321.694 260.46 325.282C262.37 324.732 264.28 324.172 266.17 323.592Z" fill="#2E353A" stroke="#2E353A" stroke-miterlimit="10"/>
<path d="M302.06 271.112C300.426 269.504 298.488 268.236 296.36 267.382C282.05 261.942 274.36 278.292 271.7 289.472C271.7 289.472 275.03 292.142 283.36 290.802C291.69 289.462 303.69 283.802 305.03 279.132C305.81 276.222 304.27 273.352 302.06 271.112Z" fill="#2E353A" stroke="#2E353A" stroke-miterlimit="10"/>
<path d="M234.65 310.802C234.65 310.802 234.65 318.472 229.31 320.472C223.97 322.472 218.98 318.802 218.98 318.802C218.98 318.802 217.98 304.142 219.31 301.472C220.64 298.802 232.31 304.472 234.65 310.802Z" fill="white" stroke="#2E353A" stroke-miterlimit="10"/>
<path d="M310.88 268.262C310.88 268.262 301.88 269.502 299.68 272.262C297.48 275.022 285.37 340.702 284.75 342.572C284.13 344.442 286.61 350.352 294.39 358.752C302.17 367.152 311.81 369.642 321.14 370.262C330.47 370.882 352.56 366.262 357.85 361.262C363.14 356.262 362.52 343.212 362.52 336.062C362.52 328.912 365.32 279.752 363.45 275.402C361.58 271.052 349.45 267.312 347.59 267.312C345.73 267.312 313.06 267.952 310.88 268.262Z" fill="white"/>
<g style="mix-blend-mode:multiply" opacity="0.49">
<path d="M362.52 336.082C362.52 328.922 365.32 279.772 363.45 275.412C361.58 271.052 349.45 267.332 347.59 267.332C345.73 267.332 313.05 267.952 310.88 268.262C309.24 268.51 307.615 268.844 306.01 269.262C310.01 276.262 318.77 286.502 335.73 287.372C342.352 287.79 348.996 287.08 355.38 285.272L351.73 326.032L323.45 323.372L344.39 334.702L345.73 352.032L360.83 356.182C362.86 350.032 362.52 341.422 362.52 336.082Z" fill="#FE5959"/>
</g>
<path d="M310.88 268.262C310.88 268.262 301.88 269.502 299.68 272.262C297.48 275.022 285.37 340.702 284.75 342.572C284.13 344.442 286.61 350.352 294.39 358.752C302.17 367.152 311.81 369.642 321.14 370.262C330.47 370.882 352.56 366.262 357.85 361.262C363.14 356.262 362.52 343.212 362.52 336.062C362.52 328.912 365.32 279.752 363.45 275.402C361.58 271.052 349.45 267.312 347.59 267.312C345.73 267.312 313.06 267.952 310.88 268.262Z" stroke="#2E353A" stroke-miterlimit="10"/>
<path d="M325.31 337.302C311.08 337.302 293.54 315.302 292.8 314.402L295.15 312.542C295.33 312.762 312.53 334.302 325.31 334.302C329.02 334.302 331.5 333.412 332.68 331.652C334.48 328.972 332.87 324.842 332.85 324.802L335.63 323.662C335.72 323.892 337.88 329.292 335.17 333.332C333.4 335.962 330.06 337.302 325.31 337.302Z" fill="#2E353A" stroke="#2E353A" stroke-miterlimit="10"/>
<path d="M279.87 344.492C280.74 343.722 281.87 342.732 282.87 341.962C282.07 341.862 277.77 341.222 276.57 338.212C275.37 335.202 277.25 330.782 281.86 325.032C295.93 307.512 318.35 303.822 318.58 303.792L318.13 300.682C317.13 300.832 294.38 304.562 279.56 323.022C274.09 329.832 272.16 335.352 273.81 339.432C274.384 340.671 275.225 341.767 276.273 342.641C277.321 343.516 278.549 344.148 279.87 344.492Z" fill="#2E353A" stroke="#2E353A" stroke-miterlimit="10"/>
<path d="M321.942 298.904L317.279 298.653L316.894 305.803L321.558 306.054L321.942 298.904Z" fill="white" stroke="#2E353A" stroke-miterlimit="10"/>
<path d="M330.793 321.673L330.511 326.335L337.658 326.767L337.939 322.105L330.793 321.673Z" fill="white" stroke="#2E353A" stroke-miterlimit="10"/>
<path d="M321.15 291.922L319.28 318.532C319.2 319.725 319.592 320.902 320.373 321.807C321.153 322.713 322.258 323.275 323.45 323.372L349.66 325.442C350.274 325.49 350.891 325.412 351.475 325.214C352.058 325.015 352.594 324.7 353.052 324.288C353.509 323.875 353.878 323.374 354.136 322.814C354.393 322.254 354.534 321.648 354.55 321.032L355.25 293.272C355.28 292.079 354.837 290.923 354.019 290.054C353.201 289.185 352.073 288.674 350.88 288.632L325.88 287.712C324.698 287.657 323.541 288.067 322.657 288.854C321.773 289.641 321.232 290.742 321.15 291.922Z" fill="white" stroke="#2E353A" stroke-miterlimit="10"/>
<path d="M333.12 287.972L332.34 304.972L340.74 305.592L341.82 288.292L333.12 287.972Z" fill="#FE5959" stroke="#2E353A" stroke-miterlimit="10"/>
<path d="M352.87 313.372C352.87 314.419 352.559 315.442 351.978 316.312C351.396 317.183 350.569 317.861 349.602 318.261C348.635 318.661 347.571 318.765 346.544 318.56C345.518 318.355 344.575 317.85 343.836 317.109C343.096 316.369 342.593 315.425 342.39 314.398C342.187 313.372 342.294 312.308 342.695 311.341C343.097 310.375 343.777 309.549 344.648 308.969C345.519 308.389 346.543 308.08 347.59 308.082C348.284 308.082 348.972 308.219 349.613 308.485C350.254 308.751 350.837 309.141 351.327 309.632C351.817 310.124 352.206 310.707 352.471 311.349C352.736 311.991 352.871 312.678 352.87 313.372Z" fill="#FE5959" stroke="#2E353A" stroke-miterlimit="10"/>
<path d="M217.48 333.972C217.48 333.972 224.98 335.302 230.15 331.472C235.32 327.642 232.48 320.802 227.81 316.972C223.14 313.142 213.65 311.972 209.81 313.802C205.97 315.632 207.98 322.802 209.15 326.642C210.32 330.482 212.31 333.302 217.48 333.972Z" fill="white" stroke="#2E353A" stroke-miterlimit="10"/>
<path d="M179.6 210.652C179.6 210.652 184.31 225.472 167.65 234.142C150.99 242.812 142.98 242.142 123.65 254.802C104.32 267.462 99.6499 295.472 99.6499 295.472C99.6499 295.472 104.31 283.472 126.31 282.142C148.31 280.812 170.31 279.932 178.98 279.472C191.65 278.802 198.31 271.472 198.31 271.472L179.6 210.652Z" fill="#FE5959" stroke="#2E353A" stroke-miterlimit="10"/>
<path d="M255.25 456.862L179.6 210.652C179.503 210.339 179.469 210.009 179.5 209.682C179.531 209.355 179.626 209.037 179.78 208.747C179.935 208.457 180.145 208.2 180.399 207.992C180.653 207.783 180.945 207.627 181.26 207.532C181.892 207.341 182.575 207.408 183.159 207.716C183.743 208.025 184.182 208.552 184.38 209.182L260.06 455.412L255.25 456.862Z" fill="#2E353A" stroke="#2E353A" stroke-miterlimit="10"/>
<path d="M209.15 333.972C209.15 333.972 208.31 336.972 211.98 337.802C215.65 338.632 221.98 336.802 221.65 333.642C221.32 330.482 218.81 329.802 216.15 330.142C213.49 330.482 209.15 332.472 209.15 333.972Z" fill="white" stroke="#2E353A" stroke-miterlimit="10"/>
<path d="M212.31 323.642C212.31 323.642 203.02 325.102 202.63 327.102C202.24 329.102 202.97 333.762 205.45 334.462C207.93 335.162 216.14 334.342 217.62 331.692C219.1 329.042 217.06 323.982 215.15 323.432C214.692 323.246 214.198 323.168 213.705 323.204C213.213 323.241 212.735 323.391 212.31 323.642Z" fill="white" stroke="#2E353A" stroke-miterlimit="10"/>
<path d="M209.7 317.242C209.7 317.242 200.4 318.702 200.01 320.712C199.62 322.722 200.35 327.362 202.84 328.062C205.33 328.762 213.52 327.952 215.01 325.302C216.5 322.652 214.44 317.592 212.54 317.042C212.083 316.855 211.589 316.776 211.096 316.81C210.604 316.845 210.126 316.993 209.7 317.242Z" fill="white" stroke="#2E353A" stroke-miterlimit="10"/>
<path d="M207.75 307.622C207.75 307.622 197.58 307.042 196.75 309.082C195.92 311.122 195.58 316.192 198.05 317.502C200.52 318.812 209.38 319.832 211.56 317.362C213.74 314.892 212.73 309.082 210.84 308.062C210.395 307.753 209.884 307.552 209.347 307.475C208.811 307.399 208.264 307.449 207.75 307.622Z" fill="white" stroke="#2E353A" stroke-miterlimit="10"/>
<path d="M221.85 311.782C221.85 311.782 224.35 306.672 222.56 302.862C220.77 299.052 216.85 299.862 215.19 301.072C214.119 301.887 213.249 302.938 212.65 304.142C212.65 304.142 216.85 304.052 218.65 305.832C220.45 307.612 221.85 311.782 221.85 311.782Z" fill="#2E353A" stroke="#2E353A" stroke-miterlimit="10"/>
<path d="M221.06 305.332C220.937 304.835 220.689 304.376 220.339 304.002C219.989 303.627 219.548 303.348 219.06 303.192C217.06 302.542 213.76 301.862 212.63 304.192C210.96 307.522 210.96 316.192 215.96 317.852C220.96 319.512 222.29 315.522 221.96 311.192C221.816 309.218 221.515 307.259 221.06 305.332Z" fill="white" stroke="#2E353A" stroke-miterlimit="10"/>
<path d="M362.43 345.972C356.43 341.712 345.28 337.632 334.98 344.142C324.68 350.652 324.52 365.192 324.82 370.312C335.33 369.842 353.17 365.682 357.82 361.312C361.14 358.182 362.14 351.952 362.43 345.972Z" fill="#2E353A" stroke="#2E353A" stroke-miterlimit="10"/>
<path d="M333.59 414.472C332.756 415.383 332.152 416.48 331.827 417.671C331.501 418.863 331.465 420.114 331.72 421.322C332.65 425.322 331.72 460.512 331.72 460.512C331.72 460.512 332.03 468.912 346.65 471.092C361.27 473.272 366.25 469.222 366.25 469.222C366.25 469.222 365.94 425.052 365.63 420.072C365.48 417.165 364.509 414.36 362.83 411.982L333.59 414.472Z" fill="white"/>
<g style="mix-blend-mode:multiply" opacity="0.49">
<path d="M362.83 412.032L333.59 414.522C332.756 415.433 332.152 416.53 331.827 417.721C331.501 418.913 331.465 420.164 331.72 421.372C332.06 422.822 332.15 428.292 332.13 434.702L360.22 471.362C364.54 470.652 366.22 469.272 366.22 469.272C366.22 469.272 365.91 425.102 365.6 420.122C365.459 417.218 364.498 414.414 362.83 412.032Z" fill="#FE5959"/>
</g>
<path d="M333.59 414.472C332.756 415.383 332.152 416.48 331.827 417.671C331.501 418.863 331.465 420.114 331.72 421.322C332.65 425.322 331.72 460.512 331.72 460.512C331.72 460.512 332.03 468.912 346.65 471.092C361.27 473.272 366.25 469.222 366.25 469.222C366.25 469.222 365.94 425.052 365.63 420.072C365.48 417.165 364.509 414.36 362.83 411.982L333.59 414.472Z" stroke="#2E353A" stroke-miterlimit="10"/>
<path d="M362.21 350.392C362.21 350.392 358.79 346.032 346.06 346.652C333.33 347.272 327.71 362.522 328.06 365.652C328.41 368.782 330.23 410.452 331.48 413.872C332.73 417.292 347.03 420.402 357.61 418.542C368.19 416.682 369.12 407.342 367.88 400.802C366.64 394.262 364.77 356.012 364.77 354.802C364.77 353.592 363.76 352.252 362.21 350.392Z" fill="white"/>
<g style="mix-blend-mode:multiply" opacity="0.49">
<path d="M367.81 400.782C366.56 394.252 364.7 355.992 364.7 354.782C364.7 353.572 363.76 352.292 362.21 350.432C361.55 349.738 360.763 349.177 359.89 348.782L358.39 349.402C358.39 349.402 359.06 356.072 359.06 364.742C359.06 373.412 357.06 402.742 357.06 402.742L329.06 371.402L328.77 379.492C329.51 392.982 330.59 411.652 331.41 413.892C332.65 417.312 346.96 420.422 357.54 418.562C368.12 416.702 369.06 407.322 367.81 400.782Z" fill="#FE5959"/>
</g>
<path d="M362.21 350.392C362.21 350.392 358.79 346.032 346.06 346.652C333.33 347.272 327.71 362.522 328.06 365.652C328.41 368.782 330.23 410.452 331.48 413.872C332.73 417.292 347.03 420.402 357.61 418.542C368.19 416.682 369.12 407.342 367.88 400.802C366.64 394.262 364.77 356.012 364.77 354.802C364.77 353.592 363.76 352.252 362.21 350.392Z" stroke="#2E353A" stroke-miterlimit="10"/>
<path d="M332.34 415.092C332.34 415.092 341.34 423.182 351.94 422.562C362.54 421.942 365.32 415.092 365.32 415.092C365.32 415.092 366.25 411.982 354.12 409.182C341.99 406.382 332.34 415.092 332.34 415.092Z" fill="#2E353A" stroke="#2E353A" stroke-miterlimit="10"/>
<path d="M327.83 279.732C344.194 279.732 357.46 265.406 357.46 247.732C357.46 230.059 344.194 215.732 327.83 215.732C311.466 215.732 298.2 230.059 298.2 247.732C298.2 265.406 311.466 279.732 327.83 279.732Z" fill="#2E353A" stroke="#2E353A" stroke-miterlimit="10"/>
<path d="M327.83 276.172C346.32 276.172 361.31 261.846 361.31 244.172C361.31 226.499 346.32 212.172 327.83 212.172C309.339 212.172 294.35 226.499 294.35 244.172C294.35 261.846 309.339 276.172 327.83 276.172Z" fill="white"/>
<g style="mix-blend-mode:multiply" opacity="0.49">
<path d="M340.64 214.612C341.78 229.292 338.12 253.972 305.15 267.712C311.427 273.201 319.492 276.209 327.83 276.172C346.32 276.172 361.31 261.852 361.31 244.172C361.31 230.842 352.77 219.412 340.64 214.612Z" fill="#FE5959"/>
</g>
<path d="M327.83 276.172C346.32 276.172 361.31 261.846 361.31 244.172C361.31 226.499 346.32 212.172 327.83 212.172C309.339 212.172 294.35 226.499 294.35 244.172C294.35 261.846 309.339 276.172 327.83 276.172Z" stroke="#2E353A" stroke-miterlimit="10"/>
<path d="M293.9 242.392C295.943 242.392 297.6 240.736 297.6 238.692C297.6 236.649 295.943 234.992 293.9 234.992C291.856 234.992 290.2 236.649 290.2 238.692C290.2 240.736 291.856 242.392 293.9 242.392Z" fill="white" stroke="#2E353A" stroke-miterlimit="10"/>
<path d="M293.9 240.912C295.126 240.912 296.12 239.919 296.12 238.692C296.12 237.466 295.126 236.472 293.9 236.472C292.674 236.472 291.68 237.466 291.68 238.692C291.68 239.919 292.674 240.912 293.9 240.912Z" fill="white" stroke="#2E353A" stroke-miterlimit="10"/>
<path d="M327.38 271.132C342.518 271.132 354.79 260.853 354.79 248.172C354.79 235.492 342.518 225.212 327.38 225.212C312.242 225.212 299.97 235.492 299.97 248.172C299.97 260.853 312.242 271.132 327.38 271.132Z" fill="#2E353A" stroke="#2E353A" stroke-miterlimit="10"/>
<path d="M305.29 237.142V247.812L307 239.702L311.69 249.522V238.422L330.06 264.882L317.26 235.432H323.26L318.99 231.592L326.67 229.462L316.86 228.612C316.86 228.612 309.13 230.742 305.29 237.142Z" fill="#FE5959"/>
<path d="M383.48 287.892L384.29 288.352C388.55 290.752 408.29 302.042 413.03 307.172C418.29 312.932 406.03 321.452 395.5 323.952C384.97 326.452 364.7 308.682 361.69 305.172C358.68 301.662 355.93 282.882 362.94 279.382C369.95 275.882 383.48 287.892 383.48 287.892Z" fill="white"/>
<g style="mix-blend-mode:multiply" opacity="0.49">
<path d="M413.06 307.172C408.37 302.042 388.58 290.752 384.32 288.352L383.51 287.892C383.51 287.892 369.98 275.892 362.97 279.382C355.96 282.872 358.72 301.672 361.72 305.172C364.882 308.427 368.314 311.408 371.98 314.082L391.06 297.362L413.78 312.362C414.215 311.53 414.38 310.583 414.251 309.652C414.122 308.722 413.705 307.855 413.06 307.172Z" fill="#FE5959"/>
</g>
<path d="M383.48 287.892L384.29 288.352C388.55 290.752 408.29 302.042 413.03 307.172C418.29 312.932 406.03 321.452 395.5 323.952C384.97 326.452 364.7 308.682 361.69 305.172C358.68 301.662 355.93 282.882 362.94 279.382C369.95 275.882 383.48 287.892 383.48 287.892Z" stroke="#2E353A" stroke-miterlimit="10"/>
<path d="M355.48 271.112C357.116 269.506 359.053 268.238 361.18 267.382C375.5 261.942 383.18 278.292 385.85 289.472C385.85 289.472 382.51 292.142 374.18 290.802C365.85 289.462 353.85 283.802 352.51 279.132C351.68 276.222 353.22 273.352 355.48 271.112Z" fill="#2E353A" stroke="#2E353A" stroke-miterlimit="10"/>
<path d="M383.23 318.942C383.23 318.942 397 302.672 406.77 302.422C416.54 302.172 421.06 309.682 420.06 315.692C419.06 321.702 411.55 328.462 411.55 328.462C411.55 328.462 416.81 310.462 409.04 310.462C401.27 310.462 383.23 318.942 383.23 318.942Z" fill="#2E353A" stroke="#2E353A" stroke-miterlimit="10"/>
<path d="M378.22 322.702C378.22 322.702 394.75 309.182 406.52 307.432C418.29 305.682 422.52 319.952 411.52 328.432C400.52 336.912 393.23 340.432 385.47 339.432C377.71 338.432 371.46 330.722 378.22 322.702Z" fill="white"/>
<g style="mix-blend-mode:multiply" opacity="0.49">
<path d="M413.19 308.412C413.36 311.322 412.49 318.772 400.39 324.032C385.06 330.702 381.98 330.722 381.98 330.722C382.435 333.199 382.01 335.756 380.78 337.952C382.238 338.749 383.832 339.268 385.48 339.482C393.24 340.482 400.48 336.982 411.53 328.482C420.06 321.852 419.42 311.772 413.19 308.412Z" fill="#FE5959"/>
</g>
<path d="M378.22 322.702C378.22 322.702 394.75 309.182 406.52 307.432C418.29 305.682 422.52 319.952 411.52 328.432C400.52 336.912 393.23 340.432 385.47 339.432C377.71 338.432 371.46 330.722 378.22 322.702Z" stroke="#2E353A" stroke-miterlimit="10"/>
<path d="M389.97 336.762C389.97 336.762 413.97 326.762 418.18 312.412" stroke="#2E353A" stroke-width="0.5" stroke-miterlimit="10"/>
<path d="M372.21 327.962C372.21 327.962 375.21 323.962 379.47 323.452C383.73 322.942 388.24 328.962 389.74 333.972C391.24 338.982 389.24 341.482 386.98 342.232C384.72 342.982 372.21 327.962 372.21 327.962Z" fill="#2E353A" stroke="#2E353A" stroke-miterlimit="10"/>
<path d="M386.98 342.232C386.98 342.232 388.49 337.482 381.98 330.722C375.47 323.962 373.21 327.722 367.45 330.972C361.69 334.222 359.69 339.972 362.19 343.972C364.69 347.972 365.7 350.482 373.19 351.732C380.68 352.982 384.96 345.222 384.96 345.222C385.967 344.497 386.683 343.437 386.98 342.232Z" fill="white"/>
<g style="mix-blend-mode:multiply" opacity="0.49">
<path d="M376.39 341.362C371.895 342.85 367.282 343.951 362.6 344.652C364.83 348.272 366.12 350.572 373.21 351.752C380.72 353.002 384.98 345.242 384.98 345.242C385.981 344.511 386.69 343.448 386.98 342.242C386.98 342.242 388.49 337.492 381.98 330.732C381.98 330.722 383.73 338.702 376.39 341.362Z" fill="#FE5959"/>
</g>
<path d="M386.98 342.232C386.98 342.232 388.49 337.482 381.98 330.722C375.47 323.962 373.21 327.722 367.45 330.972C361.69 334.222 359.69 339.972 362.19 343.972C364.69 347.972 365.7 350.482 373.19 351.732C380.68 352.982 384.96 345.222 384.96 345.222C385.967 344.497 386.683 343.437 386.98 342.232Z" stroke="#2E353A" stroke-miterlimit="10"/>
<path d="M384.98 345.242C384.98 345.242 379.22 348.752 375.71 349.002L384.98 345.242Z" fill="white"/>
<path d="M384.98 345.242C384.98 345.242 379.22 348.752 375.71 349.002" stroke="#2E353A" stroke-miterlimit="10"/>
<path d="M218.31 508.802C218.31 508.802 208.98 502.142 217.65 493.472C226.32 484.802 232.31 486.802 235.65 478.802C238.99 470.802 242.31 456.142 266.98 447.472C291.65 438.802 316.31 446.142 328.31 454.802C340.31 463.462 362.31 469.472 374.31 468.142C386.31 466.812 400.98 478.802 402.98 489.472C404.98 500.142 408.98 501.472 410.98 503.472C412.98 505.472 414.98 510.802 414.98 510.802H233.65C233.65 510.802 222.98 512.142 218.31 508.802Z" fill="#2E353A" stroke="#2E353A" stroke-miterlimit="10"/>
<path d="M389.4 478.922C389.4 478.922 395.1 487.462 391.54 494.592C387.98 501.722 381.54 501.712 381.54 501.712" stroke="white" stroke-miterlimit="10"/>
<path d="M378.72 497.442C378.72 497.442 378.72 500.282 368.72 503.852" stroke="white" stroke-miterlimit="10"/>
<path d="M285.06 506.682C281.91 507.572 279.71 508.122 279.71 508.122" stroke="white" stroke-miterlimit="10"/>
<path d="M317.55 474.912C314.25 477.672 310.69 481.412 309.62 485.332C307.49 493.162 311.05 494.592 305.35 498.862C302.18 501.242 294.61 503.862 288.52 505.672" stroke="white" stroke-miterlimit="10"/>
<path d="M323.87 470.372C323.87 470.372 322.51 471.172 320.62 472.522" stroke="white" stroke-miterlimit="10"/>
<path d="M293.24 495.302C293.24 495.302 283.24 501.712 274.72 504.562C266.2 507.412 246.94 502.422 246.94 502.422" stroke="white" stroke-miterlimit="10"/>
<path d="M244.2 497.532C240.738 495.915 237.754 493.427 235.54 490.312" stroke="white" stroke-miterlimit="10"/>
<path d="M254.06 500.282C252.146 500.112 250.256 499.74 248.42 499.172" stroke="white" stroke-miterlimit="10"/>
<path d="M304.98 341.472C296.91 334.682 289.93 335.472 285.92 336.922C285.28 340.202 284.85 342.302 284.75 342.612C284.12 344.482 286.61 350.392 294.39 358.792C299.362 364.14 305.896 367.78 313.06 369.192C314.99 361.682 315.38 350.232 304.98 341.472Z" fill="#2E353A" stroke="#2E353A" stroke-miterlimit="10"/>
<path d="M276.06 445.272C276.06 445.272 261.41 453.032 261.06 461.452C260.71 469.872 269.46 469.852 279.06 467.362C288.66 464.872 301.14 454.602 303.32 453.672C305.5 452.742 312.96 448.382 311.41 442.162C309.86 435.942 301.41 430.032 301.41 430.032L276.06 445.272Z" fill="white" stroke="#2E353A" stroke-miterlimit="10"/>
<path d="M311.6 442.792C303.22 448.862 284.6 461.882 276.35 464.252C273.8 465.071 271.093 465.279 268.448 464.86C265.803 464.442 263.293 463.408 261.12 461.842C261.12 469.842 269.66 469.842 279.12 467.362C288.76 464.872 301.2 454.602 303.38 453.672C305.56 452.742 312.52 448.672 311.6 442.792Z" fill="#FE5959" stroke="#2E353A" stroke-miterlimit="10"/>
<path d="M259.24 410.742C259.24 410.742 269.19 442.742 272.92 445.892C276.65 449.042 292.52 446.512 292.52 446.512C292.52 446.512 295.94 452.742 298.43 455.512C300.92 458.282 308.43 456.132 308.7 448.352C308.97 440.572 304.34 429.692 304.34 429.692L293.77 400.442C293.77 400.442 281.32 397.952 269.77 400.442C258.22 402.932 259.24 410.742 259.24 410.742Z" fill="white"/>
<g style="mix-blend-mode:multiply" opacity="0.49">
<path d="M308.7 448.382C309.01 440.602 304.34 429.722 304.34 429.722L293.77 400.472C287.168 399.306 280.434 399.084 273.77 399.812C271.254 400.642 268.671 401.254 266.05 401.642C264.031 402.418 262.264 403.732 260.94 405.442C263.59 406.292 266.61 407.192 269.76 408.032C279.76 410.702 283.09 406.702 285.09 414.702C287.09 422.702 289.35 439.002 292.55 446.512C292.55 446.512 295.97 452.742 298.46 455.512C300.95 458.282 308.39 456.162 308.7 448.382Z" fill="#FE5959"/>
</g>
<path d="M259.24 410.742C259.24 410.742 269.19 442.742 272.92 445.892C276.65 449.042 292.52 446.512 292.52 446.512C292.52 446.512 295.94 452.742 298.43 455.512C300.92 458.282 308.43 456.132 308.7 448.352C308.97 440.572 304.34 429.692 304.34 429.692L293.77 400.442C293.77 400.442 281.32 397.952 269.77 400.442C258.22 402.932 259.24 410.742 259.24 410.742Z" stroke="#2E353A" stroke-miterlimit="10"/>
<path d="M304.65 445.122C304.968 446.86 305.066 448.631 304.94 450.392" stroke="#2E353A" stroke-width="0.5" stroke-miterlimit="10"/>
<path d="M290.26 407.882C290.26 407.882 300.63 427.882 303.98 441.882" stroke="#2E353A" stroke-width="0.5" stroke-miterlimit="10"/>
<path d="M257.99 395.812C257.99 395.812 253.33 401.722 256.13 408.872C258.93 416.022 270.13 417.872 279.77 414.472C289.41 411.072 294.7 402.652 293.46 398.302C292.22 393.952 257.99 395.812 257.99 395.812Z" fill="#2E353A" stroke="#2E353A" stroke-miterlimit="10"/>
<path d="M312.12 366.882C312.12 366.882 299.68 395.502 291.59 401.412C283.5 407.322 265.46 407.632 258.93 400.472C252.4 393.312 260.17 376.522 268.26 363.472C276.35 350.422 280.39 339.212 289.41 339.832C298.43 340.452 313.37 351.632 312.12 366.882Z" fill="white"/>
<g style="mix-blend-mode:multiply" opacity="0.49">
<path d="M284.39 394.032C277.39 399.922 267.97 401.742 260.92 402.192C268.58 407.532 284.22 406.792 291.59 401.412C299.68 395.502 312.12 366.882 312.12 366.882C312.384 363.599 311.909 360.298 310.73 357.222C307.22 363.642 295.06 385.032 284.39 394.032Z" fill="#FE5959"/>
</g>
<path d="M312.12 366.882C312.12 366.882 299.68 395.502 291.59 401.412C283.5 407.322 265.46 407.632 258.93 400.472C252.4 393.312 260.17 376.522 268.26 363.472C276.35 350.422 280.39 339.212 289.41 339.832C298.43 340.452 313.37 351.632 312.12 366.882Z" stroke="#2E353A" stroke-miterlimit="10"/>
<path d="M284.18 402.632C283.051 403.351 281.847 403.945 280.59 404.402" stroke="#2E353A" stroke-width="0.5" stroke-miterlimit="10"/>
<path d="M308.13 369.452C304.27 377.682 297.03 391.452 288.55 399.242" stroke="#2E353A" stroke-width="0.5" stroke-miterlimit="10"/>
<path d="M311.13 362.662C311.13 362.662 310.45 364.362 309.22 367.092" stroke="#2E353A" stroke-width="0.5" stroke-miterlimit="10"/>
</svg>
